{
    "asset" : {
        "generator" : "Khronos glTF Blender I/O v3.2.40",
        "version" : "2.0"
    },
    "scene" : 0,
    "scenes" : [
        {
            "name" : "Scene",
            "nodes" : [
                0
            ]
        }
    ],
    "nodes" : [
        {
            "mesh" : 0,
            "name" : "Cube.006",
            "rotation" : [
                0,
                -0.7071068286895752,
                0,
                0.7071068286895752
            ],
            "translation" : [
                1.077188491821289,
                2.3868443965911865,
                -2.001396417617798
            ]
        }
    ],
    "materials" : [
        {
            "doubleSided" : true,
            "name" : "Metal",
            "pbrMetallicRoughness" : {
                "baseColorFactor" : [
                    0.800000011920929,
                    0.800000011920929,
                    0.800000011920929,
                    1
                ],
                "roughnessFactor" : 0.5
            }
        }
    ],
    "meshes" : [
        {
            "name" : "Cube.002",
            "primitives" : [
                {
                    "attributes" : {
                        "POSITION" : 0,
                        "NORMAL" : 1,
                        "TEXCOORD_0" : 2
                    },
                    "indices" : 3,
                    "material" : 0
                }
            ]
        }
    ],
    "accessors" : [
        {
            "bufferView" : 0,
            "componentType" : 5126,
            "count" : 365,
            "max" : [
                -0.14689356088638306,
                0.8515371680259705,
                0.5594094395637512
            ],
            "min" : [
                -0.2558614909648895,
                -0.3327876925468445,
                -0.559409499168396
            ],
            "type" : "VEC3"
        },
        {
            "bufferView" : 1,
            "componentType" : 5126,
            "count" : 365,
            "type" : "VEC3"
        },
        {
            "bufferView" : 2,
            "componentType" : 5126,
            "count" : 365,
            "type" : "VEC2"
        },
        {
            "bufferView" : 3,
            "componentType" : 5123,
            "count" : 1164,
            "type" : "SCALAR"
        }
    ],
    "bufferViews" : [
        {
            "buffer" : 0,
            "byteLength" : 4380,
            "byteOffset" : 0
        },
        {
            "buffer" : 0,
            "byteLength" : 4380,
            "byteOffset" : 4380
        },
        {
            "buffer" : 0,
            "byteLength" : 2920,
            "byteOffset" : 8760
        },
        {
            "buffer" : 0,
            "byteLength" : 2328,
            "byteOffset" : 11680
        }
    ],
    "buffers" : [
        {
            "byteLength" : 14008,
            "uri" : "data:application/octet-stream;base64,"
        }
    ]
}
