{
    "asset" : {
        "generator" : "Khronos glTF Blender I/O v3.2.40",
        "version" : "2.0"
    },
    "scene" : 0,
    "scenes" : [
        {
            "name" : "Scene",
            "nodes" : [
                0,
                1
            ]
        }
    ],
    "nodes" : [
        {
            "mesh" : 0,
            "name" : "Plane.004"
        },
        {
            "mesh" : 1,
            "name" : "Cube.008",
            "rotation" : [
                0,
                -0.7071068286895752,
                0,
                0.7071068286895752
            ],
            "translation" : [
                1.077188491821289,
                2.3868443965911865,
                -2.001396417617798
            ]
        }
    ],
    "materials" : [
        {
            "doubleSided" : true,
            "name" : "Metal",
            "pbrMetallicRoughness" : {
                "baseColorFactor" : [
                    0.800000011920929,
                    0.800000011920929,
                    0.800000011920929,
                    1
                ],
                "roughnessFactor" : 0.5
            }
        },
        {
            "doubleSided" : true,
            "name" : "Metal.002",
            "pbrMetallicRoughness" : {
                "baseColorFactor" : [
                    0.25068432092666626,
                    0.25068432092666626,
                    0.25068432092666626,
                    1
                ],
                "roughnessFactor" : 0.5
            }
        }
    ],
    "meshes" : [
        {
            "name" : "Plane.009",
            "primitives" : [
                {
                    "attributes" : {
                        "POSITION" : 0,
                        "NORMAL" : 1,
                        "TEXCOORD_0" : 2
                    },
                    "indices" : 3,
                    "material" : 0
                },
                {
                    "attributes" : {
                        "POSITION" : 4,
                        "NORMAL" : 5,
                        "TEXCOORD_0" : 6
                    },
                    "indices" : 7,
                    "material" : 0
                }
            ]
        },
        {
            "name" : "Cube.004",
            "primitives" : [
                {
                    "attributes" : {
                        "POSITION" : 8,
                        "NORMAL" : 9,
                        "TEXCOORD_0" : 10
                    },
                    "indices" : 11,
                    "material" : 1
                }
            ]
        }
    ],
    "accessors" : [
        {
            "bufferView" : 0,
            "componentType" : 5126,
            "count" : 1051,
            "max" : [
                2.299999952316284,
                3.500000238418579,
                -2
            ],
            "min" : [
                -1,
                0.6000000238418579,
                -2.166002035140991
            ],
            "type" : "VEC3"
        },
        {
            "bufferView" : 1,
            "componentType" : 5126,
            "count" : 1051,
            "type" : "VEC3"
        },
        {
            "bufferView" : 2,
            "componentType" : 5126,
            "count" : 1051,
            "type" : "VEC2"
        },
        {
            "bufferView" : 3,
            "componentType" : 5123,
            "count" : 2727,
            "type" : "SCALAR"
        },
        {
            "bufferView" : 4,
            "componentType" : 5126,
            "count" : 2689,
            "max" : [
                2.295832395553589,
                3.495832920074463,
                -2
            ],
            "min" : [
                -0.9958322048187256,
                0.6000000238418579,
                -2.1701698303222656
            ],
            "type" : "VEC3"
        },
        {
            "bufferView" : 5,
            "componentType" : 5126,
            "count" : 2689,
            "type" : "VEC3"
        },
        {
            "bufferView" : 6,
            "componentType" : 5126,
            "count" : 2689,
            "type" : "VEC2"
        },
        {
            "bufferView" : 7,
            "componentType" : 5123,
            "count" : 7305,
            "type" : "SCALAR"
        },
        {
            "bufferView" : 8,
            "componentType" : 5126,
            "count" : 227,
            "max" : [
                -0.2066572904586792,
                0.7842617034912109,
                0.4921339750289917
            ],
            "min" : [
                -0.2558614909648895,
                -0.3327876925468445,
                -0.4921340346336365
            ],
            "type" : "VEC3"
        },
        {
            "bufferView" : 9,
            "componentType" : 5126,
            "count" : 227,
            "type" : "VEC3"
        },
        {
            "bufferView" : 10,
            "componentType" : 5126,
            "count" : 227,
            "type" : "VEC2"
        },
        {
            "bufferView" : 11,
            "componentType" : 5123,
            "count" : 816,
            "type" : "SCALAR"
        }
    ],
    "bufferViews" : [
        {
            "buffer" : 0,
            "byteLength" : 12612,
            "byteOffset" : 0
        },
        {
            "buffer" : 0,
            "byteLength" : 12612,
            "byteOffset" : 12612
        },
        {
            "buffer" : 0,
            "byteLength" : 8408,
            "byteOffset" : 25224
        },
        {
            "buffer" : 0,
            "byteLength" : 5454,
            "byteOffset" : 33632
        },
        {
            "buffer" : 0,
            "byteLength" : 32268,
            "byteOffset" : 39088
        },
        {
            "buffer" : 0,
            "byteLength" : 32268,
            "byteOffset" : 71356
        },
        {
            "buffer" : 0,
            "byteLength" : 21512,
            "byteOffset" : 103624
        },
        {
            "buffer" : 0,
            "byteLength" : 14610,
            "byteOffset" : 125136
        },
        {
            "buffer" : 0,
            "byteLength" : 2724,
            "byteOffset" : 139748
        },
        {
            "buffer" : 0,
            "byteLength" : 2724,
            "byteOffset" : 142472
        },
        {
            "buffer" : 0,
            "byteLength" : 1816,
            "byteOffset" : 145196
        },
        {
            "buffer" : 0,
            "byteLength" : 1632,
            "byteOffset" : 147012
        }
    ],
    "buffers" : [
        {
            "byteLength" : 148644,
            "uri" : "data:application/octet-stream;base64,"
        }
    ]
}
