{
    "asset" : {
        "generator" : "Khronos glTF Blender I/O v3.2.40",
        "version" : "2.0"
    },
    "scene" : 0,
    "scenes" : [
        {
            "name" : "Scene",
            "nodes" : [
                0
            ]
        }
    ],
    "nodes" : [
        {
            "mesh" : 0,
            "name" : "Plane.020",
            "rotation" : [
                0,
                -0.7071068286895752,
                0,
                0.7071068286895752
            ],
            "translation" : [
                1.077188491821289,
                1.5237717628479004,
                -2.001396417617798
            ]
        }
    ],
    "materials" : [
        {
            "doubleSided" : true,
            "emissiveFactor" : [
                1,
                1,
                1
            ],
            "name" : "Light",
            "pbrMetallicRoughness" : {
                "baseColorFactor" : [
                    0,
                    0,
                    0,
                    1
                ]
            }
        }
    ],
    "meshes" : [
        {
            "name" : "Plane.019",
            "primitives" : [
                {
                    "attributes" : {
                        "POSITION" : 0,
                        "NORMAL" : 1,
                        "TEXCOORD_0" : 2
                    },
                    "indices" : 3,
                    "material" : 0
                }
            ]
        }
    ],
    "accessors" : [
        {
            "bufferView" : 0,
            "componentType" : 5126,
            "count" : 3414,
            "max" : [
                0.008342972956597805,
                0.15063533186912537,
                0.5017021894454956
            ],
            "min" : [
                -0.05092795193195343,
                -2.0156266689300537,
                -0.5017021894454956
            ],
            "type" : "VEC3"
        },
        {
            "bufferView" : 1,
            "componentType" : 5126,
            "count" : 3414,
            "type" : "VEC3"
        },
        {
            "bufferView" : 2,
            "componentType" : 5126,
            "count" : 3414,
            "type" : "VEC2"
        },
        {
            "bufferView" : 3,
            "componentType" : 5123,
            "count" : 11880,
            "type" : "SCALAR"
        }
    ],
    "bufferViews" : [
        {
            "buffer" : 0,
            "byteLength" : 40968,
            "byteOffset" : 0
        },
        {
            "buffer" : 0,
            "byteLength" : 40968,
            "byteOffset" : 40968
        },
        {
            "buffer" : 0,
            "byteLength" : 27312,
            "byteOffset" : 81936
        },
        {
            "buffer" : 0,
            "byteLength" : 23760,
            "byteOffset" : 109248
        }
    ],
    "buffers" : [
        {
            "byteLength" : 133008,
            "uri" : "data:application/octet-stream;base64,"
        }
    ]
}
