{
    "asset" : {
        "generator" : "Khronos glTF Blender I/O v3.2.40",
        "version" : "2.0"
    },
    "scene" : 0,
    "scenes" : [
        {
            "name" : "Scene",
            "nodes" : [
                0,
                1,
                2,
                3,
                4
            ]
        }
    ],
    "nodes" : [
        {
            "mesh" : 0,
            "name" : "Circle",
            "translation" : [
                1.9414823055267334,
                2.6667978763580322,
                -1.9576724767684937
            ]
        },
        {
            "mesh" : 0,
            "name" : "Circle.001",
            "translation" : [
                2.0471649169921875,
                2.6667978763580322,
                -1.9576724767684937
            ]
        },
        {
            "mesh" : 0,
            "name" : "Circle.002",
            "translation" : [
                1.9414823055267334,
                2.561115026473999,
                -1.9576724767684937
            ]
        },
        {
            "mesh" : 1,
            "name" : "Plane.022",
            "translation" : [
                1.9914413690567017,
                2.262279987335205,
                -1.9999427795410156
            ]
        },
        {
            "mesh" : 2,
            "name" : "Plane.024",
            "translation" : [
                1.9914413690567017,
                2.4362175464630127,
                -1.9576724767684937
            ]
        }
    ],
    "materials" : [
        {
            "doubleSided" : true,
            "emissiveFactor" : [
                1,
                1,
                1
            ],
            "name" : "Light",
            "pbrMetallicRoughness" : {
                "baseColorFactor" : [
                    0,
                    0,
                    0,
                    1
                ]
            }
        },
        {
            "doubleSided" : true,
            "name" : "Metal",
            "pbrMetallicRoughness" : {
                "baseColorFactor" : [
                    0.800000011920929,
                    0.800000011920929,
                    0.800000011920929,
                    1
                ],
                "roughnessFactor" : 0.5
            }
        }
    ],
    "meshes" : [
        {
            "name" : "Circle",
            "primitives" : [
                {
                    "attributes" : {
                        "POSITION" : 0,
                        "NORMAL" : 1,
                        "TEXCOORD_0" : 2
                    },
                    "indices" : 3,
                    "material" : 0
                }
            ]
        },
        {
            "name" : "Plane.022",
            "primitives" : [
                {
                    "attributes" : {
                        "POSITION" : 4,
                        "NORMAL" : 5,
                        "TEXCOORD_0" : 6
                    },
                    "indices" : 7,
                    "material" : 1
                }
            ]
        },
        {
            "name" : "Plane.024",
            "primitives" : [
                {
                    "attributes" : {
                        "POSITION" : 8,
                        "NORMAL" : 9,
                        "TEXCOORD_0" : 10
                    },
                    "indices" : 11,
                    "material" : 0
                }
            ]
        }
    ],
    "accessors" : [
        {
            "bufferView" : 0,
            "componentType" : 5126,
            "count" : 48,
            "max" : [
                0.04255465790629387,
                0.04255513846874237,
                0.03838280215859413
            ],
            "min" : [
                -0.04255465790629387,
                -0.042554184794425964,
                9.699751046809979e-08
            ],
            "type" : "VEC3"
        },
        {
            "bufferView" : 1,
            "componentType" : 5126,
            "count" : 48,
            "type" : "VEC3"
        },
        {
            "bufferView" : 2,
            "componentType" : 5126,
            "count" : 48,
            "type" : "VEC2"
        },
        {
            "bufferView" : 3,
            "componentType" : 5123,
            "count" : 132,
            "type" : "SCALAR"
        },
        {
            "bufferView" : 4,
            "componentType" : 5126,
            "count" : 263,
            "max" : [
                0.21209406852722168,
                0.5592401027679443,
                0.06977643072605133
            ],
            "min" : [
                -0.21209406852722168,
                0,
                -0.06215333938598633
            ],
            "type" : "VEC3"
        },
        {
            "bufferView" : 5,
            "componentType" : 5126,
            "count" : 263,
            "type" : "VEC3"
        },
        {
            "bufferView" : 6,
            "componentType" : 5126,
            "count" : 263,
            "type" : "VEC2"
        },
        {
            "bufferView" : 7,
            "componentType" : 5123,
            "count" : 924,
            "type" : "SCALAR"
        },
        {
            "bufferView" : 8,
            "componentType" : 5126,
            "count" : 24,
            "max" : [
                0.09399186819791794,
                0.05276031419634819,
                0.038633815944194794
            ],
            "min" : [
                -0.09399186819791794,
                -0.05276031792163849,
                -7.450580596923828e-09
            ],
            "type" : "VEC3"
        },
        {
            "bufferView" : 9,
            "componentType" : 5126,
            "count" : 24,
            "type" : "VEC3"
        },
        {
            "bufferView" : 10,
            "componentType" : 5126,
            "count" : 24,
            "type" : "VEC2"
        },
        {
            "bufferView" : 11,
            "componentType" : 5123,
            "count" : 36,
            "type" : "SCALAR"
        }
    ],
    "bufferViews" : [
        {
            "buffer" : 0,
            "byteLength" : 576,
            "byteOffset" : 0
        },
        {
            "buffer" : 0,
            "byteLength" : 576,
            "byteOffset" : 576
        },
        {
            "buffer" : 0,
            "byteLength" : 384,
            "byteOffset" : 1152
        },
        {
            "buffer" : 0,
            "byteLength" : 264,
            "byteOffset" : 1536
        },
        {
            "buffer" : 0,
            "byteLength" : 3156,
            "byteOffset" : 1800
        },
        {
            "buffer" : 0,
            "byteLength" : 3156,
            "byteOffset" : 4956
        },
        {
            "buffer" : 0,
            "byteLength" : 2104,
            "byteOffset" : 8112
        },
        {
            "buffer" : 0,
            "byteLength" : 1848,
            "byteOffset" : 10216
        },
        {
            "buffer" : 0,
            "byteLength" : 288,
            "byteOffset" : 12064
        },
        {
            "buffer" : 0,
            "byteLength" : 288,
            "byteOffset" : 12352
        },
        {
            "buffer" : 0,
            "byteLength" : 192,
            "byteOffset" : 12640
        },
        {
            "buffer" : 0,
            "byteLength" : 72,
            "byteOffset" : 12832
        }
    ],
    "buffers" : [
        {
            "byteLength" : 12904,
            "uri" : "data:application/octet-stream;base64,"
        }
    ]
}
