{
    "asset" : {
        "generator" : "Khronos glTF Blender I/O v3.2.40",
        "version" : "2.0"
    },
    "scene" : 0,
    "scenes" : [
        {
            "name" : "Scene",
            "nodes" : [
                0
            ]
        }
    ],
    "nodes" : [
        {
            "mesh" : 0,
            "name" : "Plane.027",
            "rotation" : [
                0,
                -0.3323921263217926,
                0,
                0.9431412816047668
            ],
            "translation" : [
                2.254622220993042,
                0.6000000238418579,
                -3.624983787536621
            ]
        }
    ],
    "materials" : [
        {
            "doubleSided" : true,
            "name" : "Wood.001",
            "pbrMetallicRoughness" : {
                "baseColorFactor" : [
                    0.09590985625982285,
                    0.06549905240535736,
                    0.05195147544145584,
                    1
                ],
                "metallicFactor" : 0,
                "roughnessFactor" : 0.5
            }
        }
    ],
    "meshes" : [
        {
            "name" : "Plane.027",
            "primitives" : [
                {
                    "attributes" : {
                        "POSITION" : 0,
                        "NORMAL" : 1,
                        "TEXCOORD_0" : 2
                    },
                    "indices" : 3,
                    "material" : 0
                }
            ]
        }
    ],
    "accessors" : [
        {
            "bufferView" : 0,
            "componentType" : 5126,
            "count" : 700,
            "max" : [
                0.014303665608167648,
                1.5760717391967773,
                0.852272629737854
            ],
            "min" : [
                -0.018159784376621246,
                -2.9802322387695312e-08,
                -8.940696716308594e-08
            ],
            "type" : "VEC3"
        },
        {
            "bufferView" : 1,
            "componentType" : 5126,
            "count" : 700,
            "type" : "VEC3"
        },
        {
            "bufferView" : 2,
            "componentType" : 5126,
            "count" : 700,
            "type" : "VEC2"
        },
        {
            "bufferView" : 3,
            "componentType" : 5123,
            "count" : 2430,
            "type" : "SCALAR"
        }
    ],
    "bufferViews" : [
        {
            "buffer" : 0,
            "byteLength" : 8400,
            "byteOffset" : 0
        },
        {
            "buffer" : 0,
            "byteLength" : 8400,
            "byteOffset" : 8400
        },
        {
            "buffer" : 0,
            "byteLength" : 5600,
            "byteOffset" : 16800
        },
        {
            "buffer" : 0,
            "byteLength" : 4860,
            "byteOffset" : 22400
        }
    ],
    "buffers" : [
        {
            "byteLength" : 27260,
            "uri" : "data:application/octet-stream;base64,"
        }
    ]
}
