{
    "asset" : {
        "generator" : "Khronos glTF Blender I/O v3.2.40",
        "version" : "2.0"
    },
    "scene" : 0,
    "scenes" : [
        {
            "name" : "Scene",
            "nodes" : [
                0,
                1,
                2,
                3,
                4,
                5,
                6,
                7
            ]
        }
    ],
    "nodes" : [
        {
            "mesh" : 0,
            "name" : "Plane.107",
            "scale" : [
                0.6497812271118164,
                0.6497812271118164,
                0.6497812271118164
            ],
            "translation" : [
                -0.2700394093990326,
                3.280285120010376,
                -0.699999988079071
            ]
        },
        {
            "mesh" : 1,
            "name" : "Plane.007"
        },
        {
            "mesh" : 2,
            "name" : "Vert.006",
            "rotation" : [
                0,
                -0.20362961292266846,
                0,
                0.9790480136871338
            ],
            "scale" : [
                1.5727033615112305,
                1.5727033615112305,
                1.5727033615112305
            ],
            "translation" : [
                -3.2551162242889404,
                6.101442337036133,
                3.356020450592041
            ]
        },
        {
            "mesh" : 3,
            "name" : "Plane.026",
            "translation" : [
                2.299999952316284,
                0.6000000238418579,
                -3.198847532272339
            ]
        },
        {
            "mesh" : 4,
            "name" : "Cube.004",
            "translation" : [
                0,
                3.613072633743286,
                -0.699999988079071
            ]
        },
        {
            "mesh" : 5,
            "name" : "Plane.001",
            "translation" : [
                0,
                2.75,
                -0.699999988079071
            ]
        },
        {
            "mesh" : 4,
            "name" : "Cube.009",
            "rotation" : [
                0,
                -0.7071068286895752,
                0,
                0.7071068286895752
            ],
            "translation" : [
                1.077188491821289,
                2.3868443965911865,
                -2.001396417617798
            ]
        },
        {
            "mesh" : 5,
            "name" : "Plane.020",
            "rotation" : [
                0,
                -0.7071068286895752,
                0,
                0.7071068286895752
            ],
            "translation" : [
                1.077188491821289,
                1.5237717628479004,
                -2.001396417617798
            ]
        }
    ],
    "materials" : [
        {
            "doubleSided" : true,
            "emissiveFactor" : [
                1,
                1,
                1
            ],
            "name" : "Light.003",
            "pbrMetallicRoughness" : {
                "baseColorFactor" : [
                    0,
                    0,
                    0,
                    1
                ]
            }
        },
        {
            "doubleSided" : true,
            "emissiveFactor" : [
                1,
                1,
                1
            ],
            "name" : "Light",
            "pbrMetallicRoughness" : {
                "baseColorFactor" : [
                    0,
                    0,
                    0,
                    1
                ]
            }
        },
        {
            "doubleSided" : true,
            "emissiveFactor" : [
                1,
                1,
                1
            ],
            "name" : "Light.001",
            "pbrMetallicRoughness" : {
                "baseColorFactor" : [
                    0,
                    0,
                    0,
                    1
                ]
            }
        },
        {
            "doubleSided" : true,
            "name" : "Wood",
            "pbrMetallicRoughness" : {
                "baseColorFactor" : [
                    0.361629843711853,
                    0.24006198346614838,
                    0.1866793930530548,
                    1
                ],
                "metallicFactor" : 0,
                "roughnessFactor" : 0.5
            }
        }
    ],
    "meshes" : [
        {
            "name" : "Plane.096",
            "primitives" : [
                {
                    "attributes" : {
                        "POSITION" : 0,
                        "NORMAL" : 1,
                        "TEXCOORD_0" : 2
                    },
                    "indices" : 3,
                    "material" : 0
                }
            ]
        },
        {
            "name" : "Plane.007",
            "primitives" : [
                {
                    "attributes" : {
                        "POSITION" : 4,
                        "NORMAL" : 5,
                        "TEXCOORD_0" : 6
                    },
                    "indices" : 7,
                    "material" : 1
                }
            ]
        },
        {
            "name" : "Vert.006",
            "primitives" : [
                {
                    "attributes" : {
                        "POSITION" : 8,
                        "NORMAL" : 9,
                        "TEXCOORD_0" : 10
                    },
                    "indices" : 11,
                    "material" : 2
                }
            ]
        },
        {
            "name" : "Plane.026",
            "primitives" : [
                {
                    "attributes" : {
                        "POSITION" : 12,
                        "NORMAL" : 13,
                        "TEXCOORD_0" : 14
                    },
                    "indices" : 15,
                    "material" : 3
                }
            ]
        },
        {
            "name" : "Cube.005",
            "primitives" : [
                {
                    "attributes" : {
                        "POSITION" : 16,
                        "NORMAL" : 17,
                        "TEXCOORD_0" : 18
                    },
                    "indices" : 19,
                    "material" : 1
                }
            ]
        },
        {
            "name" : "Plane.019",
            "primitives" : [
                {
                    "attributes" : {
                        "POSITION" : 20,
                        "NORMAL" : 21,
                        "TEXCOORD_0" : 22
                    },
                    "indices" : 23,
                    "material" : 1
                }
            ]
        }
    ],
    "accessors" : [
        {
            "bufferView" : 0,
            "componentType" : 5126,
            "count" : 4,
            "max" : [
                0,
                2,
                0.9999998807907104
            ],
            "min" : [
                0,
                0,
                -0.9999999403953552
            ],
            "type" : "VEC3"
        },
        {
            "bufferView" : 1,
            "componentType" : 5126,
            "count" : 4,
            "type" : "VEC3"
        },
        {
            "bufferView" : 2,
            "componentType" : 5126,
            "count" : 4,
            "type" : "VEC2"
        },
        {
            "bufferView" : 3,
            "componentType" : 5123,
            "count" : 6,
            "type" : "SCALAR"
        },
        {
            "bufferView" : 4,
            "componentType" : 5126,
            "count" : 16,
            "max" : [
                0,
                2.4000000953674316,
                2.5999999046325684
            ],
            "min" : [
                -4,
                2.200000047683716,
                0.6000000238418579
            ],
            "type" : "VEC3"
        },
        {
            "bufferView" : 5,
            "componentType" : 5126,
            "count" : 16,
            "type" : "VEC3"
        },
        {
            "bufferView" : 6,
            "componentType" : 5126,
            "count" : 16,
            "type" : "VEC2"
        },
        {
            "bufferView" : 7,
            "componentType" : 5123,
            "count" : 84,
            "type" : "SCALAR"
        },
        {
            "bufferView" : 8,
            "componentType" : 5126,
            "count" : 2314,
            "max" : [
                0.3975398540496826,
                0.4473443031311035,
                1.5447396039962769
            ],
            "min" : [
                -1.202987551689148,
                -1.0660614967346191,
                -0.6612655520439148
            ],
            "type" : "VEC3"
        },
        {
            "bufferView" : 9,
            "componentType" : 5126,
            "count" : 2314,
            "type" : "VEC3"
        },
        {
            "bufferView" : 10,
            "componentType" : 5126,
            "count" : 2314,
            "type" : "VEC2"
        },
        {
            "bufferView" : 11,
            "componentType" : 5123,
            "count" : 6408,
            "type" : "SCALAR"
        },
        {
            "bufferView" : 12,
            "componentType" : 5126,
            "count" : 16,
            "max" : [
                0.025619948282837868,
                1.6794047355651855,
                0.52946937084198
            ],
            "min" : [
                -0.1925278604030609,
                -2.9802322387695312e-08,
                -0.52946937084198
            ],
            "type" : "VEC3"
        },
        {
            "bufferView" : 13,
            "componentType" : 5126,
            "count" : 16,
            "type" : "VEC3"
        },
        {
            "bufferView" : 14,
            "componentType" : 5126,
            "count" : 16,
            "type" : "VEC2"
        },
        {
            "bufferView" : 15,
            "componentType" : 5123,
            "count" : 84,
            "type" : "SCALAR"
        },
        {
            "bufferView" : 16,
            "componentType" : 5126,
            "count" : 32,
            "max" : [
                0.5275285243988037,
                -0.4185563027858734,
                0.5416923761367798
            ],
            "min" : [
                -0.29383763670921326,
                -0.47364068031311035,
                -0.5416924357414246
            ],
            "type" : "VEC3"
        },
        {
            "bufferView" : 17,
            "componentType" : 5126,
            "count" : 32,
            "type" : "VEC3"
        },
        {
            "bufferView" : 18,
            "componentType" : 5126,
            "count" : 32,
            "type" : "VEC2"
        },
        {
            "bufferView" : 19,
            "componentType" : 5123,
            "count" : 144,
            "type" : "SCALAR"
        },
        {
            "bufferView" : 20,
            "componentType" : 5126,
            "count" : 144,
            "max" : [
                0.008342972956597805,
                0.15063533186912537,
                0.5017021894454956
            ],
            "min" : [
                -0.05092795193195343,
                -2.0156266689300537,
                0.21572479605674744
            ],
            "type" : "VEC3"
        },
        {
            "bufferView" : 21,
            "componentType" : 5126,
            "count" : 144,
            "type" : "VEC3"
        },
        {
            "bufferView" : 22,
            "componentType" : 5126,
            "count" : 144,
            "type" : "VEC2"
        },
        {
            "bufferView" : 23,
            "componentType" : 5123,
            "count" : 756,
            "type" : "SCALAR"
        }
    ],
    "bufferViews" : [
        {
            "buffer" : 0,
            "byteLength" : 48,
            "byteOffset" : 0
        },
        {
            "buffer" : 0,
            "byteLength" : 48,
            "byteOffset" : 48
        },
        {
            "buffer" : 0,
            "byteLength" : 32,
            "byteOffset" : 96
        },
        {
            "buffer" : 0,
            "byteLength" : 12,
            "byteOffset" : 128
        },
        {
            "buffer" : 0,
            "byteLength" : 192,
            "byteOffset" : 140
        },
        {
            "buffer" : 0,
            "byteLength" : 192,
            "byteOffset" : 332
        },
        {
            "buffer" : 0,
            "byteLength" : 128,
            "byteOffset" : 524
        },
        {
            "buffer" : 0,
            "byteLength" : 168,
            "byteOffset" : 652
        },
        {
            "buffer" : 0,
            "byteLength" : 27768,
            "byteOffset" : 820
        },
        {
            "buffer" : 0,
            "byteLength" : 27768,
            "byteOffset" : 28588
        },
        {
            "buffer" : 0,
            "byteLength" : 18512,
            "byteOffset" : 56356
        },
        {
            "buffer" : 0,
            "byteLength" : 12816,
            "byteOffset" : 74868
        },
        {
            "buffer" : 0,
            "byteLength" : 192,
            "byteOffset" : 87684
        },
        {
            "buffer" : 0,
            "byteLength" : 192,
            "byteOffset" : 87876
        },
        {
            "buffer" : 0,
            "byteLength" : 128,
            "byteOffset" : 88068
        },
        {
            "buffer" : 0,
            "byteLength" : 168,
            "byteOffset" : 88196
        },
        {
            "buffer" : 0,
            "byteLength" : 384,
            "byteOffset" : 88364
        },
        {
            "buffer" : 0,
            "byteLength" : 384,
            "byteOffset" : 88748
        },
        {
            "buffer" : 0,
            "byteLength" : 256,
            "byteOffset" : 89132
        },
        {
            "buffer" : 0,
            "byteLength" : 288,
            "byteOffset" : 89388
        },
        {
            "buffer" : 0,
            "byteLength" : 1728,
            "byteOffset" : 89676
        },
        {
            "buffer" : 0,
            "byteLength" : 1728,
            "byteOffset" : 91404
        },
        {
            "buffer" : 0,
            "byteLength" : 1152,
            "byteOffset" : 93132
        },
        {
            "buffer" : 0,
            "byteLength" : 1512,
            "byteOffset" : 94284
        }
    ],
    "buffers" : [
        {
            "byteLength" : 95796,
            "uri" : "data:application/octet-stream;base64,"
        }
    ]
}
