{
    "asset" : {
        "generator" : "Khronos glTF Blender I/O v3.2.40",
        "version" : "2.0"
    },
    "scene" : 0,
    "scenes" : [
        {
            "name" : "Scene",
            "nodes" : [
                0,
                1,
                2,
                4,
                5,
                6,
                7,
                8,
                9
            ]
        }
    ],
    "nodes" : [
        {
            "mesh" : 0,
            "name" : "Plane.107",
            "scale" : [
                0.6497812271118164,
                0.6497812271118164,
                0.6497812271118164
            ],
            "translation" : [
                -0.2700394093990326,
                3.280285120010376,
                -0.699999988079071
            ]
        },
        {
            "mesh" : 1,
            "name" : "Plane.007"
        },
        {
            "mesh" : 2,
            "name" : "Plane.008"
        },
        {
            "mesh" : 3,
            "name" : "Plane.027",
            "rotation" : [
                0,
                -0.3323921263217926,
                0,
                0.9431412816047668
            ],
            "translation" : [
                -0.04537773132324219,
                0,
                -0.4261362552642822
            ]
        },
        {
            "children" : [
                3
            ],
            "mesh" : 4,
            "name" : "Plane.025",
            "translation" : [
                2.299999952316284,
                0.6000000238418579,
                -3.198847532272339
            ]
        },
        {
            "mesh" : 5,
            "name" : "Vert.006",
            "rotation" : [
                0,
                -0.20362961292266846,
                0,
                0.9790480136871338
            ],
            "scale" : [
                1.5727033615112305,
                1.5727033615112305,
                1.5727033615112305
            ],
            "translation" : [
                -3.2551162242889404,
                6.101442337036133,
                3.356020450592041
            ]
        },
        {
            "mesh" : 6,
            "name" : "Cube.004",
            "translation" : [
                0,
                3.613072633743286,
                -0.699999988079071
            ]
        },
        {
            "mesh" : 7,
            "name" : "Plane.001",
            "translation" : [
                0,
                2.75,
                -0.699999988079071
            ]
        },
        {
            "mesh" : 6,
            "name" : "Cube.009",
            "rotation" : [
                0,
                -0.7071068286895752,
                0,
                0.7071068286895752
            ],
            "translation" : [
                1.077188491821289,
                2.3868443965911865,
                -2.001396417617798
            ]
        },
        {
            "mesh" : 7,
            "name" : "Plane.020",
            "rotation" : [
                0,
                -0.7071068286895752,
                0,
                0.7071068286895752
            ],
            "translation" : [
                1.077188491821289,
                1.5237717628479004,
                -2.001396417617798
            ]
        }
    ],
    "materials" : [
        {
            "doubleSided" : true,
            "emissiveFactor" : [
                1,
                1,
                1
            ],
            "name" : "Light.003",
            "pbrMetallicRoughness" : {
                "baseColorFactor" : [
                    0,
                    0,
                    0,
                    1
                ]
            }
        },
        {
            "doubleSided" : true,
            "emissiveFactor" : [
                1,
                1,
                1
            ],
            "name" : "Light",
            "pbrMetallicRoughness" : {
                "baseColorFactor" : [
                    0,
                    0,
                    0,
                    1
                ]
            }
        },
        {
            "doubleSided" : true,
            "name" : "Metal.002",
            "pbrMetallicRoughness" : {
                "baseColorFactor" : [
                    0.25068432092666626,
                    0.25068432092666626,
                    0.25068432092666626,
                    1
                ],
                "roughnessFactor" : 0.5
            }
        },
        {
            "doubleSided" : true,
            "name" : "Wood.001",
            "pbrMetallicRoughness" : {
                "baseColorFactor" : [
                    0.09590985625982285,
                    0.06549905240535736,
                    0.05195147544145584,
                    1
                ],
                "metallicFactor" : 0,
                "roughnessFactor" : 0.5
            }
        },
        {
            "doubleSided" : true,
            "emissiveFactor" : [
                1,
                1,
                1
            ],
            "name" : "Light.001",
            "pbrMetallicRoughness" : {
                "baseColorFactor" : [
                    0,
                    0,
                    0,
                    1
                ]
            }
        }
    ],
    "meshes" : [
        {
            "name" : "Plane.096",
            "primitives" : [
                {
                    "attributes" : {
                        "POSITION" : 0,
                        "NORMAL" : 1,
                        "TEXCOORD_0" : 2
                    },
                    "indices" : 3,
                    "material" : 0
                }
            ]
        },
        {
            "name" : "Plane.007",
            "primitives" : [
                {
                    "attributes" : {
                        "POSITION" : 4,
                        "NORMAL" : 5,
                        "TEXCOORD_0" : 6
                    },
                    "indices" : 7,
                    "material" : 1
                }
            ]
        },
        {
            "name" : "Plane.008",
            "primitives" : [
                {
                    "attributes" : {
                        "POSITION" : 8,
                        "NORMAL" : 9,
                        "TEXCOORD_0" : 10
                    },
                    "indices" : 11,
                    "material" : 2
                }
            ]
        },
        {
            "name" : "Plane.027",
            "primitives" : [
                {
                    "attributes" : {
                        "POSITION" : 12,
                        "NORMAL" : 13,
                        "TEXCOORD_0" : 14
                    },
                    "indices" : 15,
                    "material" : 3
                }
            ]
        },
        {
            "name" : "Plane.025",
            "primitives" : [
                {
                    "attributes" : {
                        "POSITION" : 16,
                        "NORMAL" : 17,
                        "TEXCOORD_0" : 18
                    },
                    "indices" : 19
                }
            ]
        },
        {
            "name" : "Vert.006",
            "primitives" : [
                {
                    "attributes" : {
                        "POSITION" : 20,
                        "NORMAL" : 21,
                        "TEXCOORD_0" : 22
                    },
                    "indices" : 23,
                    "material" : 4
                }
            ]
        },
        {
            "name" : "Cube.005",
            "primitives" : [
                {
                    "attributes" : {
                        "POSITION" : 24,
                        "NORMAL" : 25,
                        "TEXCOORD_0" : 26
                    },
                    "indices" : 27,
                    "material" : 1
                }
            ]
        },
        {
            "name" : "Plane.019",
            "primitives" : [
                {
                    "attributes" : {
                        "POSITION" : 28,
                        "NORMAL" : 29,
                        "TEXCOORD_0" : 30
                    },
                    "indices" : 31,
                    "material" : 1
                }
            ]
        }
    ],
    "accessors" : [
        {
            "bufferView" : 0,
            "componentType" : 5126,
            "count" : 4,
            "max" : [
                0,
                2,
                0.9999998807907104
            ],
            "min" : [
                0,
                0,
                -0.9999999403953552
            ],
            "type" : "VEC3"
        },
        {
            "bufferView" : 1,
            "componentType" : 5126,
            "count" : 4,
            "type" : "VEC3"
        },
        {
            "bufferView" : 2,
            "componentType" : 5126,
            "count" : 4,
            "type" : "VEC2"
        },
        {
            "bufferView" : 3,
            "componentType" : 5123,
            "count" : 6,
            "type" : "SCALAR"
        },
        {
            "bufferView" : 4,
            "componentType" : 5126,
            "count" : 16,
            "max" : [
                0,
                2.4000000953674316,
                2.5999999046325684
            ],
            "min" : [
                -4,
                2.200000047683716,
                0.6000000238418579
            ],
            "type" : "VEC3"
        },
        {
            "bufferView" : 5,
            "componentType" : 5126,
            "count" : 16,
            "type" : "VEC3"
        },
        {
            "bufferView" : 6,
            "componentType" : 5126,
            "count" : 16,
            "type" : "VEC2"
        },
        {
            "bufferView" : 7,
            "componentType" : 5123,
            "count" : 84,
            "type" : "SCALAR"
        },
        {
            "bufferView" : 8,
            "componentType" : 5126,
            "count" : 8,
            "max" : [
                0,
                4.900000095367432,
                0.6000000238418579
            ],
            "min" : [
                -4,
                0.6000000238418579,
                -2
            ],
            "type" : "VEC3"
        },
        {
            "bufferView" : 9,
            "componentType" : 5126,
            "count" : 8,
            "type" : "VEC3"
        },
        {
            "bufferView" : 10,
            "componentType" : 5126,
            "count" : 8,
            "type" : "VEC2"
        },
        {
            "bufferView" : 11,
            "componentType" : 5123,
            "count" : 36,
            "type" : "SCALAR"
        },
        {
            "bufferView" : 12,
            "componentType" : 5126,
            "count" : 75,
            "max" : [
                0.014303665608167648,
                1.5760717391967773,
                0.852272629737854
            ],
            "min" : [
                -0.021375037729740143,
                -2.9802322387695312e-08,
                -8.940696716308594e-08
            ],
            "type" : "VEC3"
        },
        {
            "bufferView" : 13,
            "componentType" : 5126,
            "count" : 75,
            "type" : "VEC3"
        },
        {
            "bufferView" : 14,
            "componentType" : 5126,
            "count" : 75,
            "type" : "VEC2"
        },
        {
            "bufferView" : 15,
            "componentType" : 5123,
            "count" : 318,
            "type" : "SCALAR"
        },
        {
            "bufferView" : 16,
            "componentType" : 5126,
            "count" : 24,
            "max" : [
                0.20380067825317383,
                1.6794047355651855,
                0.52946937084198
            ],
            "min" : [
                -0.8068559169769287,
                0,
                -0.52946937084198
            ],
            "type" : "VEC3"
        },
        {
            "bufferView" : 17,
            "componentType" : 5126,
            "count" : 24,
            "type" : "VEC3"
        },
        {
            "bufferView" : 18,
            "componentType" : 5126,
            "count" : 24,
            "type" : "VEC2"
        },
        {
            "bufferView" : 19,
            "componentType" : 5123,
            "count" : 36,
            "type" : "SCALAR"
        },
        {
            "bufferView" : 20,
            "componentType" : 5126,
            "count" : 2314,
            "max" : [
                0.3975398540496826,
                0.4473443031311035,
                1.5447396039962769
            ],
            "min" : [
                -1.202987551689148,
                -1.0660614967346191,
                -0.6612655520439148
            ],
            "type" : "VEC3"
        },
        {
            "bufferView" : 21,
            "componentType" : 5126,
            "count" : 2314,
            "type" : "VEC3"
        },
        {
            "bufferView" : 22,
            "componentType" : 5126,
            "count" : 2314,
            "type" : "VEC2"
        },
        {
            "bufferView" : 23,
            "componentType" : 5123,
            "count" : 6408,
            "type" : "SCALAR"
        },
        {
            "bufferView" : 24,
            "componentType" : 5126,
            "count" : 32,
            "max" : [
                0.5275285243988037,
                -0.4185563027858734,
                0.5416923761367798
            ],
            "min" : [
                -0.29383763670921326,
                -0.47364068031311035,
                -0.5416924357414246
            ],
            "type" : "VEC3"
        },
        {
            "bufferView" : 25,
            "componentType" : 5126,
            "count" : 32,
            "type" : "VEC3"
        },
        {
            "bufferView" : 26,
            "componentType" : 5126,
            "count" : 32,
            "type" : "VEC2"
        },
        {
            "bufferView" : 27,
            "componentType" : 5123,
            "count" : 144,
            "type" : "SCALAR"
        },
        {
            "bufferView" : 28,
            "componentType" : 5126,
            "count" : 144,
            "max" : [
                0.008342972956597805,
                0.15063533186912537,
                0.5017021894454956
            ],
            "min" : [
                -0.05092795193195343,
                -2.0156266689300537,
                0.21572479605674744
            ],
            "type" : "VEC3"
        },
        {
            "bufferView" : 29,
            "componentType" : 5126,
            "count" : 144,
            "type" : "VEC3"
        },
        {
            "bufferView" : 30,
            "componentType" : 5126,
            "count" : 144,
            "type" : "VEC2"
        },
        {
            "bufferView" : 31,
            "componentType" : 5123,
            "count" : 756,
            "type" : "SCALAR"
        }
    ],
    "bufferViews" : [
        {
            "buffer" : 0,
            "byteLength" : 48,
            "byteOffset" : 0
        },
        {
            "buffer" : 0,
            "byteLength" : 48,
            "byteOffset" : 48
        },
        {
            "buffer" : 0,
            "byteLength" : 32,
            "byteOffset" : 96
        },
        {
            "buffer" : 0,
            "byteLength" : 12,
            "byteOffset" : 128
        },
        {
            "buffer" : 0,
            "byteLength" : 192,
            "byteOffset" : 140
        },
        {
            "buffer" : 0,
            "byteLength" : 192,
            "byteOffset" : 332
        },
        {
            "buffer" : 0,
            "byteLength" : 128,
            "byteOffset" : 524
        },
        {
            "buffer" : 0,
            "byteLength" : 168,
            "byteOffset" : 652
        },
        {
            "buffer" : 0,
            "byteLength" : 96,
            "byteOffset" : 820
        },
        {
            "buffer" : 0,
            "byteLength" : 96,
            "byteOffset" : 916
        },
        {
            "buffer" : 0,
            "byteLength" : 64,
            "byteOffset" : 1012
        },
        {
            "buffer" : 0,
            "byteLength" : 72,
            "byteOffset" : 1076
        },
        {
            "buffer" : 0,
            "byteLength" : 900,
            "byteOffset" : 1148
        },
        {
            "buffer" : 0,
            "byteLength" : 900,
            "byteOffset" : 2048
        },
        {
            "buffer" : 0,
            "byteLength" : 600,
            "byteOffset" : 2948
        },
        {
            "buffer" : 0,
            "byteLength" : 636,
            "byteOffset" : 3548
        },
        {
            "buffer" : 0,
            "byteLength" : 288,
            "byteOffset" : 4184
        },
        {
            "buffer" : 0,
            "byteLength" : 288,
            "byteOffset" : 4472
        },
        {
            "buffer" : 0,
            "byteLength" : 192,
            "byteOffset" : 4760
        },
        {
            "buffer" : 0,
            "byteLength" : 72,
            "byteOffset" : 4952
        },
        {
            "buffer" : 0,
            "byteLength" : 27768,
            "byteOffset" : 5024
        },
        {
            "buffer" : 0,
            "byteLength" : 27768,
            "byteOffset" : 32792
        },
        {
            "buffer" : 0,
            "byteLength" : 18512,
            "byteOffset" : 60560
        },
        {
            "buffer" : 0,
            "byteLength" : 12816,
            "byteOffset" : 79072
        },
        {
            "buffer" : 0,
            "byteLength" : 384,
            "byteOffset" : 91888
        },
        {
            "buffer" : 0,
            "byteLength" : 384,
            "byteOffset" : 92272
        },
        {
            "buffer" : 0,
            "byteLength" : 256,
            "byteOffset" : 92656
        },
        {
            "buffer" : 0,
            "byteLength" : 288,
            "byteOffset" : 92912
        },
        {
            "buffer" : 0,
            "byteLength" : 1728,
            "byteOffset" : 93200
        },
        {
            "buffer" : 0,
            "byteLength" : 1728,
            "byteOffset" : 94928
        },
        {
            "buffer" : 0,
            "byteLength" : 1152,
            "byteOffset" : 96656
        },
        {
            "buffer" : 0,
            "byteLength" : 1512,
            "byteOffset" : 97808
        }
    ],
    "buffers" : [
        {
            "byteLength" : 99320,
            "uri" : "data:application/octet-stream;base64,"
        }
    ]
}
